<svg xmlns="http://www.w3.org/2000/svg" width="320" height="360" viewBox="0 0 320 360" fill="none">
    <defs>
      <linearGradient id="g" x1="0" y1="0" x2="1" y2="1">
        <stop stop-color="#f43f5e"/>
        <stop offset="1" stop-color="#fed7aa"/>
      </linearGradient>
    </defs>
    <rect width="320" height="360" rx="36" fill="#4c0519"/>
    <circle cx="70" cy="72" r="70" fill="url(#g)" opacity="0.22"/>
    <circle cx="260" cy="284" r="90" fill="url(#g)" opacity="0.18"/>
    <rect x="18" y="18" width="284" height="324" rx="28" fill="rgba(255,255,255,0.04)" stroke="rgba(255,255,255,0.08)"/>
    <circle cx="160" cy="128" r="52" fill="url(#g)" opacity="0.95"/>
    <path d="M100 224c8-42 36-62 60-62s52 20 60 62v30H100v-30z" fill="url(#g)"/>
    <path d="M121 128c0-23 18-41 39-41s39 18 39 41-18 45-39 45-39-22-39-45z" fill="rgba(255,255,255,0.12)"/>
    <text x="160" y="128" font-family="Inter,Arial" font-size="34" font-weight="900" fill="white" text-anchor="middle" dy="12">JN</text>
    <text x="36" y="296" font-family="Inter,Arial" font-size="16" font-weight="700" fill="rgba(255,255,255,0.78)">JOSH</text>
    <text x="36" y="326" font-family="Inter,Arial" font-size="28" font-weight="900" fill="white">NAYLOR</text>
    <text x="36" y="44" font-family="Inter,Arial" font-size="12" font-weight="700" letter-spacing="4" fill="rgba(255,255,255,0.62)">INGAME</text>
    </svg>